<?xml version="1.0" encoding="UTF-8"?>
<svg xmlns="http://www.w3.org/2000/svg" version="1.1" viewBox="0 0 777.3 724">
  <defs>
    <style>
      .cls-1 {
        fill: #eae7f8;
      }

      .cls-2 {
        fill: #355c7a;
      }

      .cls-3 {
        fill: #94d5a3;
      }

      .cls-4 {
        fill: #080808;
      }

      .cls-5 {
        fill: #76bea0;
      }

      .cls-6 {
        fill: #78c1a3;
      }

      .cls-7 {
        fill: #eb6060;
      }

      .cls-8 {
        fill: #030403;
      }

      .cls-9 {
        fill: #f7f5f6;
      }

      .cls-10 {
        fill: #030303;
      }

      .cls-11 {
        fill: #f17b7b;
      }

      .cls-12 {
        fill: #050303;
      }

      .cls-13 {
        fill: #040404;
      }

      .cls-14 {
        fill: #fdfdfd;
      }

      .cls-15 {
        fill: #406f92;
      }
    </style>
  </defs>
  <!-- Generator: Adobe Illustrator 28.7.3, SVG Export Plug-In . SVG Version: 1.2.0 Build 164)  -->
  <g>
    <g id="Layer_1">
      <g>
        <path class="cls-10" d="M622.9,447.6c4,7.5,3.7,10.4-2.2,16.3-29.9,29.9-59.8,59.8-89.7,89.7-6.8,6.8-11.2,6.8-18,0-12.8-12.7-25.5-25.5-38.4-38.3-1.9,1.8-1,3.9-1,5.6,0,29.9,0,59.9,0,89.8,0,25.5-16,41.8-41.5,41.8-112.3,0-224.6,0-336.9,0-20.2,0-32.3-8.3-40.1-27.1-.4-.9-.4-2.2-1.8-2.4v-228.6c2.7-3.6,5.7-6.6,10.6-6.7,7.3,1.7,9.4,6.6,9.3,13.7-.1,68.9,0,137.8,0,206.7,0,18,6.6,24.6,24.6,24.6,107,0,214,0,321,0,2.4,0,4.8-.2,7.2-.4,1.5.1,3.1.3,4.6.4,16.2.1,23.2-6.9,23.2-23.3,0-36.6,0-73.1,0-109.7,0-2.5.6-5.2-1.7-7.4-6.6-6.2-12.9-12.5-19.4-18.8-1.4-1.6-2.8-3.3-4.4-4.9-26.9-27-54.1-53.7-80.8-80.9-46.2-47-44.3-121.3,4.1-165.8,22.4-20.6,49.4-29.6,79.6-30,6.3.8,12.6,1.4,18.9,2.5,3.1.5,3.7-.4,3.7-3.3-.1-18.4.2-36.9-.2-55.3-.2-9.6-8.2-17.2-17.8-17.8-3.7-.2-7.4,0-11.2.1-9.7,0-19.3,0-29-.3-3.2,0-4.4,1.1-5.6,4-7.1,17.3-20.1,26.8-39,27.1-21.1.3-42.2,0-63.2.1-6.7,0-10.9-2.6-11.9-9.6,1.7-8.1,4.5-10.4,13.2-10.5,18.7-.2,37.4-.2,56.1-.3,2.2,0,4.4.2,6.6.2,14.8-.4,24.4-14.2,19.6-28.1-3.5-10.3-13.4-15.3-27.6-13.9-8.1-.1-16.3-.3-24.4-.4-9.7-.1-12.3-2.5-13.6-12.2-1.5-11-9.3-18.4-20.5-18.6-14.5-.2-29.1-.2-43.6,0-11.6.2-19.6,7.9-20.9,19.6-.9,8.3-3.9,11.1-12.4,11.1-10.3,0-20.7,0-31,0-5.2,0-10.1,1-14.3,4.2-7.8,5.9-10.8,15.1-7.9,24,2.8,8.5,10.4,14.2,20.1,14.3,20.7.2,41.4,0,62.1,0,8.7,0,11.1,1.9,13.9,10.1-3,8.6-4.7,9.9-13.9,9.9-20.3,0-40.5,0-60.8,0-19.3,0-32.6-9.4-39.8-27-1.4-3.4-2.9-4.2-6.2-4.1-11.2.2-22.5,0-33.7,0-17.2,0-24,6.7-24,23.9,0,69.1,0,138.3,0,207.4,0,7-1.8,12.1-9.3,13.6-5,0-8.1-3.1-10.6-6.9v-227.3c1.7-.5,1.3-2.1,1.7-3.2,6.4-17.5,20.1-27.2,38.7-27.2,12.1,0,24.2-.1,36.3,0,3.7,0,5.6-.7,7.1-4.7,6.1-16.5,21-26.5,38.7-26.7,7.3-.1,14.5-.1,21.8,0,2.9,0,4.5-.5,5.7-3.7,7.2-18.1,20.7-27.3,40.2-27.4,13.7,0,27.3-.2,41,0,19,.3,32,9.6,39,27.1,1.2,3.1,2.6,3.9,5.6,3.9,9.5.1,18.9-.8,28.4.6,15.7,2.4,26.6,11.3,32.3,25.9,1.7,4.3,3.7,5,7.6,4.9,11.9-.2,23.8-.1,35.7,0,24,0,40.4,16.6,40.5,40.8,0,19.2,0,38.3,0,57.5,0,2.6-.3,5,3.1,6.4,16.3,7,29.4,18.3,41.3,31.2,3.1,3.4,5,3.5,8.1,0,16.9-18.7,36.9-32.2,61.7-38.4,78-19.4,151.3,45.9,141,125.7-3.3,25.3-13.6,47.2-31.3,65.4-13.6,14.1-27.7,27.7-41.5,41.7-5,5.1-10.1,5.7-15.9,1.7-4-7.6-3.7-10.2,2.3-16.3,13.5-13.6,27.2-26.9,40.5-40.6,31.3-32.1,36.1-81.7,11.2-118.8-14.3-21.3-33.8-35.3-59.5-39.9-28.4-6.6-54,0-77.1,17.1-10,7.3-17.9,16.9-26.8,25.5-6.5,6.2-11.1,6.3-17.5,0-6.8-6.6-13.1-13.7-20.2-19.9-25.7-22.9-55.6-30.7-88.9-21.7-70.6,18.9-94,106.2-42.4,158.5,49.3,50,99.2,99.4,148.9,149,.8.8,1.7,1.4,2.5,2,.8,1,1.6,2.1,2.5,3q6.2,6.3,12.7-.1c25.9-25.9,51.9-51.9,77.8-77.8,6.5-6.5,8.8-6.9,16.7-2.7Z"/>
        <path class="cls-14" d="M53.3,356.1c2.5,3.9,5.5,6.9,10.6,6.9,0,8.2,0,16.4,0,24.7-4.8.2-7.9,3.1-10.6,6.7v-38.3Z"/>
        <path class="cls-7" d="M634.7,214.8c25.7,4.5,45.3,18.6,59.5,39.9,24.9,37.1,20.1,86.8-11.2,118.8-13.4,13.7-27,27-40.5,40.6-6,6-6.3,8.6-2.3,16.3-5.8,5.8-11.5,11.5-17.3,17.3-7.9-4.1-10.2-3.8-16.7,2.7-26,25.9-51.9,51.9-77.8,77.8q-6.5,6.5-12.7.1c-.9-.9-1.7-2-2.5-3,1.8-1.6,3.7-3.1,5.4-4.8,45.3-45.2,90.6-90.4,135.7-135.8,21.9-22.1,34.4-48.2,33.4-80.1-1.1-31.6-13.3-57.4-37.4-77.9-5-4.3-10.9-7.2-15.5-11.9Z"/>
        <path class="cls-9" d="M63.8,387.7c0-8.2,0-16.4,0-24.7,7.5-1.5,9.3-6.6,9.3-13.6-.1-69.1,0-138.3,0-207.4,0-17.1,6.8-23.9,24-23.9,11.2,0,22.5,0,33.7,0,3.2,0,4.8.7,6.2,4.1,7.3,17.6,20.6,26.9,39.8,27,20.3.1,40.5,0,60.8,0,9.2,0,10.9-1.3,13.9-9.9,8.2.1,16.4.2,24.6.3.9,6.9,5.2,9.6,11.9,9.6,21.1,0,42.2.2,63.2-.1,18.9-.2,31.8-9.8,39-27.1,1.2-2.9,2.4-4.1,5.6-4,9.6.3,19.3.2,29,.3,4.6,6.1,7,12.7,6.7,20.6-.5,17.7-.1,35.4-.2,53.1-30.1.4-57.1,9.4-79.6,30-48.5,44.5-50.4,118.7-4.1,165.8,26.7,27.2,53.8,53.9,80.8,80.9,1.5,1.5,2.9,3.2,4.4,4.9-2.4,2.1-1.4,5-1.4,7.5,0,40.9-.1,81.8,0,122.7,0,9.9.5,19.8-5.3,28.5-2.4.1-4.8.4-7.2.4-107,0-214,0-321,0-18,0-24.6-6.6-24.6-24.6,0-68.9,0-137.8,0-206.7,0-7.1-2.1-12-9.3-13.7ZM191,375.4c0-10.8,0-21.6,0-32.3,0-8.1-3.6-11.6-11.8-11.6-21.1,0-42.2-.1-63.3,0-7.8,0-11.4,3.6-11.5,11.3-.1,21.6-.1,43.1,0,64.7,0,7.3,3.8,10.9,11.1,10.9,21.3,0,42.7,0,64,0,7.8,0,11.4-3.5,11.4-11.2.1-10.6,0-21.1,0-31.7ZM191,241.8c0-10.6,0-21.1,0-31.7,0-7.7-3.7-11.2-11.4-11.2-21.3,0-42.7,0-64,0-7.3,0-11.1,3.6-11.1,10.9-.1,21.6-.1,43.1,0,64.7,0,7.7,3.7,11.3,11.4,11.3,21.1.1,42.2.1,63.3,0,8.4,0,11.7-3.6,11.8-12.3,0-10.6,0-21.1,0-31.7ZM191,507.4c0-10.6,0-21.1,0-31.7,0-8.2-3.4-11.6-11.7-11.6-21.1-.1-42.2-.1-63.3,0-8.3,0-11.6,3.4-11.6,11.7-.1,21.1-.1,42.2,0,63.3,0,8.2,3.4,11.6,11.7,11.6,21.1,0,42.2,0,63.3,0,8.2,0,11.5-3.4,11.6-11.7,0-10.6,0-21.1,0-31.7ZM275.3,475.6c-7.3,0-14.5,0-21.8,0-9.4,0-18.9-.2-28.3,0-6.1.2-10.3,4.4-10.3,9.8,0,5.4,4,9.4,10.2,9.9,2,.2,4,.1,5.9.1,25.5,0,51,0,76.5,0,6.4,0,12.8.3,19.1-.4,7.7-.8,11.2-9.3,6.8-15.4-2.6-3.6-6.5-4.2-10.6-4.1-15.8,0-31.6,0-47.5,0ZM267.6,210.6c-13.4,0-26.9,0-40.3,0-7.8,0-12.3,3.6-12.4,9.7,0,6.2,4.7,10.1,12.8,10.1,26.9,0,53.7,0,80.6,0,7.7,0,12.2-3.7,12.3-9.8,0-6.3-4.2-9.9-12-10-13.7,0-27.3,0-41,0ZM256.7,539.1c10.3,0,20.7.1,31,0,6.7-.1,11-4.1,11.1-9.7,0-5.6-4.2-10-10.8-10.1-20.7-.2-41.4-.2-62.1,0-6.7,0-11,4.2-11.1,9.8-.1,5.8,4.4,9.9,11.5,10,10.1.1,20.3,0,30.4,0ZM256.1,274.1c10.1,0,20.3,0,30.4,0,7.7,0,12.3-3.8,12.4-9.8,0-6.1-4.5-10-12.1-10-19.8,0-39.6,0-59.5,0-7.8,0-12.3,3.7-12.4,9.7-.1,6.2,4.7,10.1,12.8,10.1,9.5,0,18.9,0,28.4,0ZM256.4,362.9c10.1,0,20.3,0,30.4,0,7.6,0,12.2-4,12.1-10-.1-5.9-4.6-9.7-11.8-9.8-20,0-40.1,0-60.1,0-7.5,0-12.2,4.1-12.1,10.1.1,5.9,4.6,9.6,11.8,9.7,9.9,0,19.8,0,29.7,0ZM256.4,406.5c10.1,0,20.3,0,30.4,0,7.6,0,12.2-3.9,12.1-10,0-5.8-4.6-9.8-11.7-9.8-20.3,0-40.5-.1-60.8,0-7,0-11.6,4.3-11.5,10.1,0,5.9,4.6,9.6,11.7,9.7,9.9,0,19.8,0,29.7,0Z"/>
        <path class="cls-11" d="M634.7,214.8c4.6,4.7,10.5,7.6,15.5,11.9,24.1,20.5,36.4,46.4,37.4,77.9,1.1,31.9-11.5,58-33.4,80.1-45.1,45.4-90.4,90.6-135.7,135.8-1.7,1.7-3.6,3.2-5.4,4.8-.8-.7-1.8-1.3-2.5-2-49.7-49.7-99.6-99.1-148.9-149-51.6-52.3-28.3-139.6,42.4-158.5,33.3-8.9,63.2-1.2,88.9,21.7,7.1,6.3,13.4,13.3,20.2,19.9,6.4,6.3,11.1,6.2,17.5,0,8.9-8.5,16.8-18.1,26.8-25.5,23.1-17,48.7-23.7,77.1-17.1ZM543.2,394.8c-1.1-3-1.7-4.8-2.3-6.6-10.5-30.3-21.1-60.6-31.5-90.9-1.7-4.9-4.1-9-9.8-9.3-5.7-.3-8.5,3.4-10.7,8.1-7.7,16.8-15.7,33.4-23.3,50.2-1.7,3.8-3.9,5.1-8,5-15-.2-29.9-.1-44.9,0-4.4,0-8.8-.2-13.2.4-5.3.7-8.1,4.3-8,9.7,0,5.4,2.9,8.6,8.2,9.5,2.1.4,4.4.3,6.6.3,17.4,0,34.8-.8,52.2.3,13,.9,20.4-3.4,24.7-15.9,3.6-10.4,9.2-20.2,14.5-31.4,1.2,3.3,1.8,5.1,2.5,6.9,10.8,31.1,21.7,62.2,32.4,93.4,1.7,5,4.3,9,9.9,9.2,6,.2,8.7-3.8,10.7-9,5.9-15.8,12.3-31.5,18-47.4,1.7-4.8,4.1-6.2,9.1-6.1,20,.3,40.1.2,60.1,0,8,0,12.9-4.1,12.7-10.3-.2-5.9-4.9-9.7-12.6-9.7-23.6,0-47.1,0-70.7,0-6.9,0-11,2.7-13.3,9.3-3.9,11.1-8.5,22-13.2,34.2Z"/>
        <path class="cls-15" d="M276,139.7c-8.2-.1-16.4-.2-24.6-.3-2.9-8.2-5.3-10.1-13.9-10.1-20.7,0-41.4,0-62.1,0-9.7,0-17.3-5.7-20.1-14.3-2.9-8.9.1-18,7.9-24,4.2-3.2,9.1-4.2,14.3-4.2,10.3,0,20.7,0,31,0,8.4,0,11.5-2.8,12.4-11.1,1.2-11.6,9.3-19.4,20.9-19.6,14.5-.2,29.1-.2,43.6,0,11.1.2,19,7.6,20.5,18.6,1.3,9.7,3.9,12.1,13.6,12.2,8.1,0,16.3.2,24.4.4,3.3,7.6,7.3,14.9,6.8,23.7-.4,6.6-3.7,12.1-5.4,18.1-18.7.1-37.4.2-56.1.3-8.7,0-11.5,2.4-13.2,10.5Z"/>
        <path class="cls-1" d="M425.9,632.4c5.9-8.7,5.4-18.6,5.3-28.5-.1-40.9,0-81.8,0-122.7,0-2.5-1-5.3,1.4-7.5,6.5,6.3,12.8,12.6,19.4,18.8,2.3,2.2,1.7,4.8,1.7,7.4,0,36.6,0,73.1,0,109.7,0,16.3-7.1,23.4-23.2,23.3-1.5,0-3.1-.2-4.6-.4Z"/>
        <path class="cls-1" d="M431.2,192.2c0-17.7-.3-35.4.2-53.1.2-7.9-2.1-14.5-6.7-20.6,3.7,0,7.5-.3,11.2-.1,9.6.5,17.6,8.1,17.8,17.8.3,18.4,0,36.9.2,55.3,0,2.8-.6,3.8-3.7,3.3-6.3-1.1-12.6-1.7-18.9-2.5Z"/>
        <path class="cls-2" d="M345.3,128.9c1.7-6.1,5-11.5,5.4-18.1.5-8.8-3.5-16.1-6.8-23.7,14.2-1.4,24.1,3.6,27.6,13.9,4.8,13.9-4.8,27.7-19.6,28.1-2.2,0-4.4-.1-6.6-.2Z"/>
        <path class="cls-8" d="M191,375.4c0,10.6,0,21.1,0,31.7,0,7.6-3.7,11.2-11.4,11.2-21.3,0-42.7,0-64,0-7.3,0-11.1-3.6-11.1-10.9-.1-21.6-.1-43.1,0-64.7,0-7.7,3.7-11.2,11.5-11.3,21.1-.1,42.2-.1,63.3,0,8.2,0,11.7,3.5,11.8,11.6.1,10.8,0,21.6,0,32.3ZM149.6,351.6c-7.2-.1-14.5-.2-21.7-.4-2.9,0-3.8,1.3-3.8,4,0,13.2,0,26.4,0,39.6,0,2.9,1,3.8,3.8,3.8,7.2-.2,14.5-.2,21.7-.3,5.7,0,11.4,0,17.1.3,2.8.1,4.4-.4,4.4-3.9-.2-13.2-.1-26.4,0-39.5,0-2.7-.9-4-3.8-3.9-5.9.2-11.8.3-17.7.4Z"/>
        <path class="cls-8" d="M191,241.8c0,10.6,0,21.1,0,31.7,0,8.7-3.4,12.2-11.8,12.3-21.1.1-42.2.1-63.3,0-7.8,0-11.4-3.6-11.4-11.3-.1-21.6-.1-43.1,0-64.7,0-7.3,3.8-10.8,11.1-10.9,21.3,0,42.7,0,64,0,7.8,0,11.3,3.6,11.4,11.2.1,10.6,0,21.1,0,31.7ZM149.7,218.9c-7.2,0-14.5,0-21.7-.3-2.8,0-3.8.9-3.8,3.8.1,13.2,0,26.4,0,39.6,0,2.7.8,4.1,3.8,4,7.2-.2,14.5-.3,21.7-.4,5.7.1,11.4.1,17.1.4,3.5.2,4.5-1.3,4.5-4.6-.1-12.7-.1-25.5,0-38.2,0-3.3-.8-4.7-4.4-4.5-5.7.3-11.4.2-17.1.3Z"/>
        <path class="cls-8" d="M191,507.4c0,10.6,0,21.1,0,31.7,0,8.2-3.4,11.6-11.6,11.7-21.1.1-42.2.1-63.3,0-8.3,0-11.7-3.4-11.7-11.6-.1-21.1-.1-42.2,0-63.3,0-8.3,3.3-11.6,11.6-11.7,21.1-.1,42.2-.1,63.3,0,8.3,0,11.6,3.4,11.7,11.6.1,10.6,0,21.1,0,31.7ZM149.7,530.5c5.7.1,11.4,0,17.1.4,3.7.2,4.4-1.5,4.3-4.7-.1-12.5-.1-25.1,0-37.6,0-3.2-.6-4.9-4.3-4.7-5.7.3-11.4.3-17.1.4-7.2-.1-14.5-.1-21.7-.4-3.5-.1-3.9,1.6-3.9,4.4,0,12.7.1,25.5,0,38.2,0,3.5,1.2,4.6,4.6,4.4,7-.3,14-.3,21-.4Z"/>
        <path class="cls-4" d="M275.3,475.6c15.8,0,31.6,0,47.5,0,4.1,0,7.9.5,10.6,4.1,4.4,6,.9,14.6-6.8,15.4-6.3.7-12.7.4-19.1.4-25.5,0-51,0-76.5,0-2,0-4,0-5.9-.1-6.2-.5-10.2-4.5-10.2-9.9,0-5.4,4.2-9.6,10.3-9.8,9.4-.3,18.9,0,28.3,0,7.3,0,14.5,0,21.8,0Z"/>
        <path class="cls-13" d="M267.6,210.6c13.7,0,27.3,0,41,0,7.8,0,12.1,3.7,12,10,0,6.2-4.5,9.8-12.3,9.8-26.9,0-53.7,0-80.6,0-8,0-12.9-3.9-12.8-10.1,0-6.1,4.6-9.7,12.4-9.7,13.4,0,26.9,0,40.3,0Z"/>
        <path class="cls-4" d="M256.7,539.1c-10.1,0-20.3.1-30.4,0-7.1,0-11.6-4.2-11.5-10,.1-5.6,4.4-9.7,11.1-9.8,20.7-.2,41.4-.2,62.1,0,6.6,0,10.9,4.5,10.8,10.1,0,5.6-4.4,9.6-11.1,9.7-10.3.2-20.7,0-31,0Z"/>
        <path class="cls-13" d="M256.1,274.1c-9.5,0-18.9,0-28.4,0-8.1,0-12.9-3.9-12.8-10.1.1-6.1,4.6-9.7,12.4-9.7,19.8,0,39.6,0,59.5,0,7.6,0,12.2,3.9,12.1,10,0,6-4.7,9.8-12.4,9.8-10.1,0-20.3,0-30.4,0Z"/>
        <path class="cls-13" d="M256.4,362.9c-9.9,0-19.8,0-29.7,0-7.2,0-11.7-3.8-11.8-9.7-.1-6,4.6-10.1,12.1-10.1,20,0,40.1,0,60.1,0,7.1,0,11.7,3.9,11.8,9.8.1,6.1-4.5,10-12.1,10-10.1,0-20.3,0-30.4,0Z"/>
        <path class="cls-13" d="M256.4,406.5c-9.9,0-19.8,0-29.7,0-7.2,0-11.6-3.8-11.7-9.7,0-5.8,4.5-10.1,11.5-10.1,20.3-.1,40.5,0,60.8,0,7.1,0,11.7,4,11.7,9.8,0,6.1-4.5,9.9-12.1,10-10.1,0-20.3,0-30.4,0Z"/>
        <path class="cls-12" d="M543.2,394.8c4.7-12.1,9.3-23.1,13.2-34.2,2.3-6.6,6.4-9.4,13.3-9.3,23.6.2,47.1,0,70.7,0,7.7,0,12.4,3.7,12.6,9.7.2,6.1-4.6,10.2-12.7,10.3-20,0-40.1.2-60.1,0-4.9,0-7.3,1.3-9.1,6.1-5.7,15.9-12.1,31.6-18,47.4-1.9,5.2-4.7,9.2-10.7,9-5.6-.2-8.1-4.1-9.9-9.2-10.7-31.2-21.6-62.2-32.4-93.4-.6-1.8-1.3-3.6-2.5-6.9-5.3,11.2-10.9,21-14.5,31.4-4.3,12.5-11.7,16.7-24.7,15.9-17.3-1.1-34.8-.3-52.2-.3-2.2,0-4.4,0-6.6-.3-5.3-.9-8.1-4.2-8.2-9.5,0-5.4,2.7-8.9,8-9.7,4.3-.6,8.8-.4,13.2-.4,15,0,29.9-.2,44.9,0,4.1,0,6.3-1.2,8-5,7.6-16.8,15.6-33.5,23.3-50.2,2.2-4.8,5.1-8.5,10.7-8.1,5.7.3,8.1,4.3,9.8,9.3,10.4,30.3,21,60.6,31.5,90.9.6,1.8,1.3,3.5,2.3,6.6Z"/>
        <path class="cls-3" d="M149.7,398.2c-7.2,0-14.5,0-21.7.3-2.8,0-3.8-.9-3.8-3.8.1-13.2,0-26.4,0-39.6,0-2.7.8-4.1,3.8-4,7.2.2,14.5.3,21.7.4,0,15.5,0,31.1,0,46.6Z"/>
        <path class="cls-5" d="M149.7,398.2c0-15.5,0-31.1,0-46.6,5.9-.1,11.8-.2,17.7-.4,2.9-.1,3.8,1.2,3.8,3.9,0,13.2-.1,26.4,0,39.5,0,3.5-1.5,4-4.4,3.9-5.7-.2-11.4-.2-17.1-.3Z"/>
        <path class="cls-3" d="M149.6,265.6c-7.2.1-14.5.2-21.7.4-2.9,0-3.8-1.3-3.8-4,0-13.2,0-26.4,0-39.6,0-2.9,1-3.8,3.8-3.8,7.2.2,14.5.2,21.7.3,0,15.5,0,31.1,0,46.6Z"/>
        <path class="cls-5" d="M149.6,265.6c0-15.5,0-31.1,0-46.6,5.7,0,11.4,0,17.1-.3,3.6-.2,4.4,1.2,4.4,4.5-.2,12.7-.1,25.5,0,38.2,0,3.3-.9,4.8-4.5,4.6-5.7-.3-11.4-.3-17.1-.4Z"/>
        <path class="cls-3" d="M149.7,530.5c-7,.1-14,0-21,.4-3.4.1-4.6-.9-4.6-4.4.2-12.7.1-25.5,0-38.2,0-2.8.4-4.6,3.9-4.4,7.2.3,14.5.3,21.7.4,0,15.4,0,30.8,0,46.2Z"/>
        <path class="cls-6" d="M149.7,530.5c0-15.4,0-30.8,0-46.2,5.7-.1,11.4,0,17.1-.4,3.7-.2,4.3,1.5,4.3,4.7-.1,12.5-.1,25.1,0,37.6,0,3.2-.6,4.9-4.3,4.7-5.7-.3-11.4-.3-17.1-.4Z"/>
      </g>
    </g>
  </g>
</svg>