<svg xmlns="http://www.w3.org/2000/svg" width="98" height="98" viewBox="0 0 98 98">
  <g id="ambulance" transform="translate(-189 -3038)">
    <circle id="Ellipse_639" data-name="Ellipse 639" cx="49" cy="49" r="49" transform="translate(189 3038)" fill="#fff"/>
    <g id="Ambulance-2" data-name="Ambulance" transform="translate(-42 1301.281)">
      <g id="Group_40" data-name="Group 40" transform="translate(253 1760.719)">
        <g id="Group_39" data-name="Group 39" transform="translate(0 0)">
          <g id="Group_37" data-name="Group 37">
            <path id="Path_6" data-name="Path 6" d="M58.97,130.3v9.8a4.062,4.062,0,0,1-4.065,4.059H50.216a4.357,4.357,0,1,0-8.713,0H24.469a4.357,4.357,0,1,0-8.713,0H11.065A4.062,4.062,0,0,1,7,140.1V119.609a4.064,4.064,0,0,1,4.062-4.065H49.055a4.055,4.055,0,0,1,3.563,2.113l5.855,10.688A4.124,4.124,0,0,1,58.97,130.3Z" transform="translate(-5.904 -99.464)" fill="#f7eddc"/>
            <path id="Path_7" data-name="Path 7" d="M236.125,274.866a4.357,4.357,0,1,1-4.36-4.354A4.357,4.357,0,0,1,236.125,274.866Z" transform="translate(-191.814 -230.174)" fill="#e9c46a"/>
            <path id="Path_8" data-name="Path 8" d="M71.649,274.866a4.357,4.357,0,1,1-4.36-4.354A4.357,4.357,0,0,1,71.649,274.866Z" transform="translate(-53.084 -230.174)" fill="#e9c46a"/>
            <g id="Group_36" data-name="Group 36" transform="translate(0 33.029)">
              <path id="Path_9" data-name="Path 9" d="M250.266,292.217a1.137,1.137,0,1,1-1.137-1.137A1.137,1.137,0,0,1,250.266,292.217Z" transform="translate(-209.172 -280.551)" fill="#264653"/>
              <circle id="Ellipse_1" data-name="Ellipse 1" cx="1.137" cy="1.137" r="1.137" transform="translate(13.068 10.529)" fill="#264653"/>
              <path id="Path_10" data-name="Path 10" d="M317.539,257.368h-2.887a1.1,1.1,0,1,1,0-2.192h2.887a1.1,1.1,0,0,1,0,2.192Z" transform="translate(-264.473 -250.268)" fill="#264653"/>
              <path id="Path_11" data-name="Path 11" d="M246.166,226.012H244.72a1.1,1.1,0,0,1,0-2.191h1.446a1.1,1.1,0,1,1,0,2.191Z" transform="translate(-205.488 -223.82)" fill="#264653"/>
              <path id="Path_12" data-name="Path 12" d="M3.983,257.368H1.1a1.1,1.1,0,0,1,0-2.192H3.983a1.1,1.1,0,0,1,0,2.192Z" transform="translate(0 -250.268)" fill="#264653"/>
            </g>
            <path id="Path_13" data-name="Path 13" d="M234.917,156.328h14.928a4.143,4.143,0,0,0-.468-1.5l-4.32-7.889H234.917a1.585,1.585,0,0,0-1.585,1.584v6.228A1.585,1.585,0,0,0,234.917,156.328Z" transform="translate(-196.807 -125.942)" fill="#2a9d8f"/>
            <path id="Path_14" data-name="Path 14" d="M92.389,158.47H88.455v-3.934H84.381v3.934H80.448v4.074h3.933v3.933h4.074v-3.933h3.934Z" transform="translate(-67.855 -132.352)" fill="#e63946"/>
            <path id="Path_15" data-name="Path 15" d="M217.169,64.536a2.755,2.755,0,0,1,2.755,2.755v1.763h-5.516v-1.76a2.755,2.755,0,0,1,2.752-2.758Z" transform="translate(-180.845 -56.441)" fill="#f4a261"/>
            <path id="Path_16" data-name="Path 16" d="M226.144,16.522a1.1,1.1,0,0,1-1.1-1.095h0v-1.51a1.1,1.1,0,1,1,2.191,0v1.51a1.1,1.1,0,0,1-1.094,1.1Z" transform="translate(-189.82 -12.82)" fill="#e9c46a"/>
            <path id="Path_17" data-name="Path 17" d="M261.092,31.718a1.1,1.1,0,0,1-.736-1.908l1.12-1.013a1.1,1.1,0,0,1,1.5,1.6l-.025.023-1.119,1.014A1.094,1.094,0,0,1,261.092,31.718Z" transform="translate(-219.296 -26.047)" fill="#e9c46a"/>
            <path id="Path_18" data-name="Path 18" d="M185.158,31.781a1.093,1.093,0,0,1-.734-.283l-1.12-1.014a1.1,1.1,0,1,1,1.47-1.625l1.121,1.013a1.1,1.1,0,0,1-.736,1.908Z" transform="translate(-154.307 -26.11)" fill="#e9c46a"/>
            <path id="Path_19" data-name="Path 19" d="M203.815,93.4h6.37a1.463,1.463,0,0,1,1.463,1.463v2h-9.3v-2A1.463,1.463,0,0,1,203.815,93.4Z" transform="translate(-170.677 -80.786)" fill="#e63946"/>
            <path id="Path_20" data-name="Path 20" d="M53.066,321.372H1.1a1.1,1.1,0,1,1,0-2.191h51.97a1.1,1.1,0,1,1,0,2.191Z" transform="translate(0 -271.224)" fill="#17323a"/>
          </g>
        </g>
      </g>
      <g id="Group_38" data-name="Group 38" transform="translate(253 1760.719)">
        <path id="Path_21" data-name="Path 21" d="M54.134,81.185V81.18a5.26,5.26,0,0,0-.6-2.027L47.677,68.468a5.146,5.146,0,0,0-4.526-2.686H42.068v-.907a2.555,2.555,0,0,0-1.89-2.459v-.765a3.855,3.855,0,0,0-7.708,0v.765a2.556,2.556,0,0,0-1.89,2.459v.907H24.055a1.1,1.1,0,0,0,0,2.192h19.1a2.957,2.957,0,0,1,2.6,1.544l.644,1.175H38.109a2.682,2.682,0,0,0-2.68,2.679V79.6a2.683,2.683,0,0,0,2.68,2.679H51.97v6.456H50.179a1.1,1.1,0,1,0,0,2.192H51.97v.5A2.97,2.97,0,0,1,49,94.394H45.3a5.454,5.454,0,0,0-10.685,0H19.549a5.454,5.454,0,0,0-10.685,0h-3.7a2.97,2.97,0,0,1-2.969-2.964v-.5H3.983a1.1,1.1,0,0,0,0-2.192H2.192V70.943a2.972,2.972,0,0,1,2.969-2.969h6.475a1.1,1.1,0,1,0,0-2.192H5.161A5.166,5.166,0,0,0,0,70.943V91.431a5.163,5.163,0,0,0,5.161,5.155h3.7a5.431,5.431,0,0,0,.983,2.168H1.1a1.1,1.1,0,1,0,0,2.191h51.97a1.1,1.1,0,1,0,0-2.191H44.314a5.434,5.434,0,0,0,.984-2.168H49a5.163,5.163,0,0,0,5.161-5.155v-9.8c0-.15-.015-.3-.028-.448ZM34.66,61.649a1.663,1.663,0,0,1,3.325,0v.666H34.661Zm-1.89,4.133v-.906a.368.368,0,0,1,.368-.367h6.371a.368.368,0,0,1,.368.367v.907ZM19.548,96.588H34.613a5.431,5.431,0,0,0,.983,2.168H18.565a5.432,5.432,0,0,0,.984-2.17Zm-8.6-1.1A3.262,3.262,0,1,1,14.2,98.754,3.262,3.262,0,0,1,10.945,95.49Zm25.749,0a3.262,3.262,0,1,1,3.259,3.264h0a3.262,3.262,0,0,1-3.256-3.264Zm.927-15.89V73.372a.488.488,0,0,1,.488-.488H47.6l3.945,7.2H38.109a.488.488,0,0,1-.488-.488Z" transform="translate(0 -50.798)" fill="#2c292a"/>
        <path id="Path_22" data-name="Path 22" d="M106.428,110.736h1.461a1.1,1.1,0,1,0,0-2.191h-1.461a1.1,1.1,0,0,0,0,2.191Z" transform="translate(-88.844 -93.56)" fill="#2c292a"/>
        <path id="Path_23" data-name="Path 23" d="M249.129,291.08a1.137,1.137,0,1,0,1.137,1.137A1.137,1.137,0,0,0,249.129,291.08Z" transform="translate(-209.172 -247.522)" fill="#2c292a"/>
        <path id="Path_24" data-name="Path 24" d="M84.617,291.08a1.137,1.137,0,1,0,1.137,1.137A1.137,1.137,0,0,0,84.617,291.08Z" transform="translate(-70.412 -247.522)" fill="#2c292a"/>
        <path id="Path_25" data-name="Path 25" d="M246.166,226.012a1.1,1.1,0,1,0,0-2.191H244.72a1.1,1.1,0,0,0,0,2.191Z" transform="translate(-205.488 -190.791)" fill="#2c292a"/>
        <path id="Path_26" data-name="Path 26" d="M73.444,152.569v4.074a1.1,1.1,0,0,0,1.1,1.1h2.838v2.838a1.1,1.1,0,0,0,1.095,1.1h4.075a1.1,1.1,0,0,0,1.1-1.094h0v-2.838h2.838a1.1,1.1,0,0,0,1.1-1.1v-4.074a1.1,1.1,0,0,0-1.1-1.1H83.643v-2.838a1.1,1.1,0,0,0-1.094-1.1H78.474a1.1,1.1,0,0,0-1.1,1.095h0v2.838H74.54A1.1,1.1,0,0,0,73.444,152.569Zm2.192,1.1h2.838a1.1,1.1,0,0,0,1.1-1.1v-2.838h1.882v2.838a1.1,1.1,0,0,0,1.1,1.1h2.838v1.882H82.548a1.1,1.1,0,0,0-1.1,1.1v2.838H79.57v-2.838a1.1,1.1,0,0,0-1.1-1.1H75.636Z" transform="translate(-61.947 -126.451)" fill="#2c292a"/>
        <path id="Path_27" data-name="Path 27" d="M226.144,16.522a1.1,1.1,0,0,0,1.1-1.095h0v-1.51a1.1,1.1,0,1,0-2.191,0v1.51a1.1,1.1,0,0,0,1.094,1.1Z" transform="translate(-189.82 -12.82)" fill="#2c292a"/>
        <path id="Path_28" data-name="Path 28" d="M261.092,31.719a1.093,1.093,0,0,0,.734-.283l1.12-1.014a1.1,1.1,0,1,0-1.445-1.647l-.025.023-1.12,1.013a1.1,1.1,0,0,0,.736,1.908Z" transform="translate(-219.297 -26.048)" fill="#2c292a"/>
        <path id="Path_29" data-name="Path 29" d="M184.425,31.484a1.1,1.1,0,0,0,1.47-1.628l-1.12-1.013a1.1,1.1,0,1,0-1.47,1.625Z" transform="translate(-154.307 -26.096)" fill="#2c292a"/>
      </g>
    </g>
  </g>
</svg>
