<?xml version="1.0" encoding="UTF-8"?>
<svg xmlns="http://www.w3.org/2000/svg" version="1.1" viewBox="0 0 613.6 632.3">
  <defs>
    <style>
      .cls-1 {
        fill: #5275b6;
      }

      .cls-2 {
        fill: #fca746;
      }

      .cls-3 {
        fill: #52527a;
      }

      .cls-4 {
        fill: #f9c2aa;
      }

      .cls-5 {
        fill: #5ca1d9;
      }

      .cls-6 {
        fill: #e3e4e6;
      }

      .cls-7 {
        fill: #88edaf;
      }

      .cls-8 {
        fill: #333040;
      }

      .cls-9 {
        fill: #a6cefb;
      }

      .cls-10 {
        fill: #f8e4da;
      }

      .cls-11 {
        fill: #49d092;
      }

      .cls-12 {
        fill: #f99b87;
      }

      .cls-13 {
        fill: #393462;
      }

      .cls-14 {
        fill: #fedf6d;
      }

      .cls-15 {
        fill: #fdfdfd;
      }
    </style>
  </defs>
  <!-- Generator: Adobe Illustrator 28.7.3, SVG Export Plug-In . SVG Version: 1.2.0 Build 164)  -->
  <g>
    <g id="Layer_1">
      <g>
        <path class="cls-8" d="M588.9,503.6c-3.3,2.5-6.8,3.1-10.5,1-5.2-5.5-11.4-9.8-17.3-14.5-8-6.4-16.1-12.6-20.8-22.2-1.7-5.7-3.1-11.4-3.3-17.4-.3-7.9-.8-15.8-1.3-23.6-1.7-22.4-10.8-41.6-26.8-57.2-20.3-19.9-41-39.3-61.6-58.8-5.4-5.2-7.1-4.9-11,1.4-.6.9-.9,1.9-1.4,2.9-5.6,11.9-3.5,22.7,4.9,32.4,10.3,12,20.7,23.9,31.3,35.6,5.2,5.7,8.3,12.1,8.5,19.8-4.9,16.2-9.7,32.3-14.8,48.4-7.3,23.3-6.6,46.4.8,69.4,4.3,13.5,12,25.3,20.7,36.4,3.9,5,4.1,8.5.8,10.7-5,3.3-7.6-.5-10-3.9-4-5.6-8.1-11-11.7-16.8-1.9-3-3.8-4-7.3-4-24.1.2-48.2,0-72.4.1-1.3,0-2.8-.5-4.5,1,9.9,9.2,19.6,18.5,29.7,27.4,18.2,16,39.6,21.2,63.3,17.1,11.5-2,21.6-7.7,31.7-13.3,3.1-1.7,5.9-2.5,9.1-.4,2.1,3.5,2.8,7-1.3,9.4-16.7,9.5-33.7,17.8-53.7,17.4-21.3-.4-40.3-7.1-56.3-21.2-12.4-11-24.4-22.4-36.4-33.8-2.9-2.7-5.7-3.6-9.6-3.6-36.4.1-72.8,0-109.2,0-20.3,0-31.4-11.1-31.4-31.4,0-34.2,0-68.4,0-102.7v-5c-4.9,5.8-8.8,10.6-12.8,15.4-8.4,10.1-16.7,20.3-25.1,30.4-1.7,2.1-2.5,4.1-2.5,6.8.1,9.4.1,18.7,0,28.1-.1,12.4-7.5,20-19.8,20-34,0-68.1,0-102.1,0-12,0-19.5-7.6-19.5-19.7,0-33,0-65.9,0-98.9,0-11.9,7.6-19.7,19.5-19.7,34-.1,68.1-.1,102.1,0,12.2,0,19.9,7.9,19.6,20.2-.1,5.4,1.1,7,6.7,6.7,10.4-.5,20.9-.2,31.3,0,1.9,0,2.5-.3,2.4-2.1,0-1.1,0-2.2,0-3.2,0-44.3,0-88.6,0-132.9,0-3.7,0-5.2-4.9-4.9-10.4.7-20.9.4-31.3.1-3.3,0-4.2.7-4.2,4.1-.2,16.4-6.7,22.7-23.1,22.7-32.1,0-64.1,0-96.2,0-15.1,0-22-7-22-22.2,0-31.7,0-63.4,0-95.1,0-13.9,7-21,20.9-21,33.3,0,66.6,0,100,0,13.3,0,20.6,7.4,20.6,20.8,0,6.7.6,13.4-.1,20-.9,8.2,2.1,14.2,7.4,20.2,11,12.5,21.4,25.6,33,39.7v-7c0-50.3,0-100.5,0-150.8,0-20.3,11.1-31.3,31.4-31.3,78.2,0,156.4.3,234.5-.2,17.7-.1,31.7,11.7,31.6,31.4-.5,90.2-.2,180.5-.3,270.7,0,4.4,1.1,7.6,4.3,10.9,18.5,19.2,28.1,42.3,29.1,69,.1,3.6.9,7.2.5,10.8-1.5,13.3,4.6,22.3,14.6,30.3,9.1,7.2,17.3,15.6,25.9,23.5v6.5ZM335.9,74.3c17.5,0,34.9.2,52.4.1,15.3,0,30.6-.2,45.9-.2,13.5,0,27,.2,40.5.3,12,0,16,3.9,16,15.6,0,58.5,0,117,0,175.6,0,20.9.5,41.8-.4,62.6-.4,9.8,6,13,12.2,18.3v-80.8c0-46.4,0-92.8,0-139.3,0-16.2,0-32.4,0-48.6,0-8.2-6.5-15.3-14.3-15.3-18-.1-36,0-54,.2-32.7,0-65.5,0-98.2-.1-30.7,0-61.4-.2-92.1-.1-8.1,0-14.8,6.6-15,14.7-.2,12.7,0,25.5.1,38.2-.2,17.3-.5,34.5.1,51.8,0,.7-.2,1.4-.2,2.1,0,115.4,0,230.9,0,346.3,0,9.5,6.9,15.9,16.7,15.9,26.1,0,52.2,0,78.3,0,42.6,0,85.3,0,127.9,0,1.1,0,2.2,0,3.2,0,.8,0,1.3-.5,1.4-1.3.9-3.9-4.1-10.5-7.9-10.5-41.6,0-83.1,0-124.7,0-22.7,0-45.4,0-68.1,0-10.4,0-15.1-4.7-15.1-15.2,0-110.3,0-220.5,0-330.8,0-2.5,0-5-.1-7.6,0-16.9,0-33.9,0-50.8,0-8.4.2-16.9.2-25.3,0-11.1,4.5-15.6,15.7-15.6,26.4,0,52.9-.2,79.3-.2ZM387.9,151.3c.2,0,.3.2.5.3-.2,0-.3-.2-.5-.3-3.4-10.6-14.8-19.3-26-19.4-19.3-.1-38.5,0-57.8-.1-3.7,0-5,1-4.9,4.9.2,21.8,0,43.6.1,65.4,0,1.7-.6,3.7,1.9,5,1.6-11,5.5-21,12.2-29.6,2.6-3.4,3.4-5.6-.3-8.8-2.6-2.2-2.7-5.6-.3-8.2,2.3-2.5,5.3-1.9,7.9-.4,1.5.9,2.8,2.2,4.1,3.5,7.2,7.1,14.3,14.2,21.4,21.4,2.4,2.5,3.6,2.1,4.9-1,4.6-11.3,2.4-21.5-5.2-30.7-2.7-3.2-3.8-6.5-.4-9.4,3.1-2.6,6.3-1.2,9,1.6,1.5,1.6,2.8,4,5.6,3.8,9.4-.8,18.6,1,27.8,2.1ZM318.5,119.8c9.7,0,19.3.3,29,.2,10.8-.1,21.5-.2,31.6,4.4,5,3.3,9.9,6.7,14.2,12.1,2.7-6.2,7.2-9.8,11.8-13.2,2.9-1,5.8-1.9,8.7-2.9,21.3-1.6,35.5,11.6,35.6,32.9,0,20.3,0,40.7,0,61,0,2.4.2,4.3,2.2,6.2,6.2,5.6,8.2,12.7,5.3,20.5-2.9,8.1-9.2,12.4-17.7,12.6-3.6,0-4.8,1.1-5.5,4.5-4.1,19.5-14.8,34.4-31.8,44.7-2.8,1.7-5.1,14-3.1,16.5.8,1,2,.6,3,.8,5.1,1.1,10.3,1.9,15.2,3.5,3,1,3.8.1,4.1-2.6.6-5.3,2.6-10.1,5.3-14.6,6.9-11.4,14.5-13.4,26.1-7,8.2,8.9,17.3,17,26.2,25.4.4-.9.7-1.2.7-1.4,0-77.8,0-155.6,0-233.4,0-3.4-1.5-3.8-4.2-3.8-13.3,0-26.7.5-40-.3-7.6-.4-11.6,1.9-14.6,8.9-5.3,12.3-15.4,17.9-28.9,17.7-18.2-.3-36.4,0-54.6-.1-11.3,0-19.5-5.4-25.1-15-1.3-2.3-2.7-4.7-3.7-7.2-1.2-3.1-3.2-4.1-6.6-4.1-14,.2-28.1,0-42.1.1-7.7,0-7.1-1.5-7.1,7.2,0,101.4,0,202.8-.1,304.1,0,.7,0,1.4,0,2.2,0,.7.2,1.4.3,2.1,3.2-18,9.5-34.4,21.2-48.4,15.9-18.4,35.9-29.5,60-33.3,1.2-.2,2.6.2,3.5-1,2.1-2.9-.3-14.6-3.4-16.4-17-10.1-27.7-24.8-31.8-44.1-.8-3.7-1.9-5.1-6.1-5.3-9.1-.4-15.9-6.4-17.6-14.7-1.9-8.8,1.8-17,10.2-21.1,3.2-1.6,2.7-2.6,1.3-5-1.8-3.1-2.6-6.7-2.6-10.3,0-24.8,0-49.7,0-74.5,0-5.7,2-7.6,7.9-7.7,7.7-.1,15.5-.2,23.2-.2ZM365.2,176.2c-1.7,8.5-4.4,16.5-10.5,23-3.8,4-6.5,4.1-10.5.4-4.2-3.9-8.2-7.9-12.3-11.8-1.4-1.6-2.9-3.1-4.3-4.7-1.5-1.8-2.7-1.8-4.2.2-5.4,7.7-9.6,15.8-10.1,25.4-1.8,15.2-2.1,30.5,0,45.7,3.7,26.4,27.4,46.1,54.3,46.2,27.3,0,50.8-19.5,54.9-46.2,2.2-14.5.9-29.1.7-43.6,0-.7-.4-1.4-.7-2-1.2-24-25.6-46.7-51.2-47.6-7.7-.3-7.6-.3-6.6,7.1.4,2.7.3,5.4.4,8.1ZM455.6,442.1c3.6-11.4,7.1-22.9,11-34.3,2.2-6.3,1-11.3-3.5-16.3-10.5-11.6-20.7-23.5-31-35.2-4.2-4.8-7.6-10-9.6-16-1.3-3.8-1.6-3.8-6.1-3.7,5.4,7.4,8.9,15.6,10.3,24.6.5,3,1.5,4.1,4.4,4.8,7.2,1.7,10.8,6.5,11.1,13.9.1,3,.1,6.1.2,9.1,0,.7-.2,1.4-.2,2.1,0,4-1.5,6.8-5.9,6.7-4.4,0-5.4-3.2-5.6-7-.6-14.1-.6-13.9-13.4-13.8-3.9,0-5,1.5-4.9,5.1.1,3.8,0,7.5-.3,11.3-.3,2.9-2.3,4.4-5.2,4.5-2.8.2-5.5-1-5.7-3.8-.5-6.6-1.4-13.3.7-19.7,1.4-4.2,4.4-7.3,8.7-8,5.7-1,5.4-3.8,3.3-7.7-2.2-10.5-8.2-18.4-16.8-25.5-2.1,7.8-3.9,14.5-5.8,21.2-5.6,19.9-11.3,39.8-16.9,59.6-1,3.4-1.9,6.9-6.2,7-4.6,0-5.6-3.5-6.6-7.2-5.5-19.9-11.2-39.7-16.9-59.6-1.5-6.1-3.1-12.1-4.6-18.2-.6-2.2-1.5-2.5-3.2-.9-6.7,6.2-12.1,13.1-13.9,22.3-2.1,4.6-3.4,8.2,2.8,11.6,7.5,4.2,9.7,11.9,8,20.1-1.6,7.9-6.7,12.9-14.6,14.9-11.3,2.7-20.2-3.3-24.3-16.3-.3-6.6.7-13.5,6.4-16.9,6.9-4,8.8-9.8,10.2-16.7.7-3.8,2.8-7.4,4.4-11,1.1-2.4,2.7-4.7,4.4-7.7-28.1,9.2-47.4,33-52.3,55-3,13.7-5.3,27.5-8.3,41.2-5,23.5-8.5,47.1-7.1,71.2.2,3.4.9,4.7,4.5,4.7,9-.2,18,0,27,0,2.2,0,3.8-.2,4.1-2.9,1.1-8.7,2.3-17.5,3.5-26.2.7-4.1,1.5-8.1,2.1-12.2,1.5-10.1,3-20.3,4.5-30.4.6-3.8,2.5-6.6,6.8-6,4.2.6,5.4,3.7,4.9,7.6-.1.9-.3,1.8-.5,2.7-2.1,14.9-4.3,29.9-6.4,44.8-1,6.4-1.8,12.8-3,19.1-.6,3.1.6,3.7,3.3,3.6,3.8-.2,7.6,0,11.3,0,43.3,0,86.7,0,130,.2,4.6,0,5.4-1.5,4.7-5.4-1.3-7.2-2.4-14.5-3.7-21.7-2.4-15.2-4.8-30.4-7.1-45.6-.6-3.8-.4-7.5,4.3-8.4,5-.9,6.6,2.5,7.3,6.6.9,5.2,1.7,10.5,2.5,15.7.3,0,.5,0,.8,0,.7-2.4,1.4-4.7,2-7.1ZM201.2,238.9c-1.9-2.5-3.1-4.1-4.3-5.6-8.8-10.7-17.6-21.4-26.6-32-3.6-4.2-5.5-8.4-5.2-14.1.5-9.2.1-18.4.1-27.5,0-7-2.4-9.3-9.5-9.3-33.1,0-66.3,0-99.4,0-7.1,0-9.2,2.3-9.2,9.5,0,32.2,0,64.4,0,96.7,0,7.1,2.1,9.2,9.4,9.2,20.9,0,41.8,0,62.7,0,12.2,0,24.5,0,36.7,0,7.1,0,9.2-2.2,9.3-9.4,0-2.7,0-5.4,0-8.1,0-7.8,1.6-9.3,9.6-9.3,8.4,0,16.9,0,26.4,0ZM201.3,405c-10.5,0-19.5,0-28.5,0-5.4,0-7.4-2.2-7.6-7.6,0-3.6,0-7.2,0-10.8-.1-5.8-2.4-8.3-8.2-8.3-33.9,0-67.7,0-101.6,0-5.9,0-8.3,2.3-8.3,8.1,0,33,0,65.9,0,98.9,0,5.7,2.4,8.4,8.2,8.4,33.9.1,67.7,0,101.6,0,5.6,0,8.2-2.9,8.3-8.4,0-7,.7-14.1-.1-21-1.3-11.1,2.6-19.5,10-27.5,9-9.7,17-20.3,26.2-31.6ZM436.7,212.9c.4-1.1.8-1.5.8-2,0-20.7.2-41.4,0-62.1,0-7.4-6.2-14.1-13.7-16.3-7.1-2.1-13.9,0-18.6,6.4-3.8,5.1-3.3,11.2-3.3,17.1,0,3.9,3.8,4.5,6,6.2,13.4,10.2,21.7,23.7,25.8,39.9.9,3.4-.2,7.3,2.9,10.7ZM320.4,86.4c3.6,10.4,8.6,14.1,18.5,14.1,18.6,0,37.1,0,55.7,0,7.9,0,12.7-3.9,16-10.6,1.2-2.5.9-3.6-2.1-3.6-29.2,0-58.3,0-88,0ZM386.8,317.6c0-1.4-.1-2.9,0-4.3.3-2.9-.8-3.8-3.7-3.1-10.1,2.4-20.3,2.4-30.4,0-1.6-.4-3-.6-3.5,1.9-2.2,10.9,3,19.1,13.8,21.5,13,2.9,23.8-4.4,23.8-16ZM367.8,393.8c4.6-16.5,8.8-31.8,13.1-47,.8-2.7.3-3.7-2.7-2.7-6.9,2.2-13.8,2.2-20.7,0-2.5-.8-3.8-.6-3,2.6,4.3,15.2,8.5,30.4,13.2,47.2ZM314.4,393.4c4.5,0,8.4-3.7,8.4-8.1,0-4.4-3.8-8.2-8.3-8.1-4.4,0-7.8,3.4-7.9,7.8-.1,4.6,3.3,8.3,7.9,8.4ZM434.9,234.4c1.8,2.4-2.8,7.5,3.7,7.6,4.7,0,8.3-3.2,8.3-7.4,0-4.3-3.5-7.5-8.1-7.6-6.6-.1-2.2,5-3.9,7.4ZM300.9,234.9c-2-2.4,3.1-7.9-3.9-7.9-4.4,0-7.5,3.1-7.6,7.3,0,4.5,3.1,7.6,7.8,7.7,6.2,0,2-4.8,3.7-7.1Z"/>
        <path class="cls-12" d="M540.4,467.9c4.6,9.5,12.8,15.7,20.8,22.2,5.8,4.7,12.1,9,17.3,14.5-8.6,11.1-18.7,20.9-27.9,31.4-11.7,13.2-23.6,26.2-35.4,39.2-3.1-2-6-1.3-9.1.4-10.1,5.6-20.2,11.2-31.7,13.3-23.7,4.2-45.1-1.1-63.3-17.1-10.1-8.8-19.7-18.2-29.7-27.4,1.7-1.6,3.2-1,4.5-1,24.1,0,48.2,0,72.4-.1,3.5,0,5.5,1,7.3,4,3.6,5.8,7.7,11.3,11.7,16.8,2.5,3.4,5,7.2,10,3.9,3.4-2.2,3.1-5.7-.8-10.7-8.7-11.1-16.3-22.9-20.7-36.4-7.4-23-8.1-46.2-.8-69.4,5-16.1,9.9-32.3,14.8-48.4,11.4,9.5,11.3,22.3,10.4,35.4-.8,11.9-2.3,23.9-1.6,35.9.5,8.7,8.3,15.2,17.2,15.2,3.8,0,7.5,0,11.3,0,9.1-.3,15.6-4.4,19.1-13,1.2-2.9,2.8-5.7,4.2-8.6Z"/>
        <path class="cls-15" d="M294.9,388c4.1,13,13,19,24.3,16.3,7.9-1.9,13-7,14.6-14.9,1.7-8.2-.5-15.9-8-20.1-6.1-3.4-4.9-7-2.8-11.6,7.3-.6,14.2-4.5,21.8-3.3,5.6,19.9,11.3,39.7,16.9,59.6,1,3.7,2,7.3,6.6,7.2,4.3,0,5.3-3.6,6.2-7,5.6-19.9,11.2-39.8,16.9-59.6,8-1,15.3,1.6,22.6,4.3,2.1,3.9,2.4,6.7-3.3,7.7-4.3.7-7.3,3.9-8.7,8-2.2,6.5-1.2,13.2-.7,19.7.2,2.7,2.9,3.9,5.7,3.8,2.9-.2,4.9-1.7,5.2-4.5.4-3.7.4-7.5.3-11.3-.1-3.6,1-5.1,4.9-5.1,12.8-.1,12.8-.2,13.4,13.8.2,3.8,1.2,6.9,5.6,7,4.3,0,5.9-2.7,5.9-6.7,0-.7.1-1.4.2-2.1,3.4,1.8,3.3,5.4,3.8,8.3,2.5,12.2,4.4,24.4,6.7,36.6.5,2.8,0,6.1,2.7,8.2-.7,2.4-1.4,4.7-2,7.1-.3,0-.5,0-.8,0-.8-5.2-1.7-10.5-2.5-15.7-.7-4.1-2.3-7.5-7.3-6.6-4.7.9-4.9,4.5-4.3,8.4,2.4,15.2,4.7,30.4,7.1,45.6-5.8,1.7-11.2,4.4-17.5,4.4-41.7-.1-83.5,0-125.2,0,2.1-14.9,4.3-29.9,6.4-44.8.1-.9.4-1.8.5-2.7.5-3.9-.7-7-4.9-7.6-4.3-.6-6.2,2.2-6.8,6-1.5,10.1-2.9,20.3-4.5,30.4-.6,4.1-1.4,8.1-2.1,12.2-7-3-13.1-14.3-11.8-22.3,3.2-19.4,6.3-38.7,9.8-58,.7-3.7.6-8.4,5.1-10.5Z"/>
        <path class="cls-4" d="M331.8,187.7c4.1,4,8.2,7.9,12.3,11.8,4,3.8,6.7,3.6,10.5-.4,6.1-6.5,8.8-14.5,10.5-23,14.1.2,27.2,3.6,38.8,11.9,7.7,5.5,13.2,13,18.6,20.6.2.7.7,1.4.7,2,.2,14.6,1.5,29.2-.7,43.6-4.1,26.7-27.6,46.3-54.9,46.2-27,0-50.6-19.8-54.3-46.2-2.1-15.1-1.8-30.4,0-45.7,5.5-7.6,11.3-14.9,18.6-20.9ZM368.1,283.2c7.3,0,13.7-2.4,19.3-7,2.7-2.2,3.6-5,1.4-8-2.2-2.9-5.1-3.3-8-1.3-8.5,6-16.9,6.2-25.3,0-2.9-2.1-5.9-1.9-8.1,1-2.5,3.2-1.4,6.1,1.5,8.4,5.6,4.5,12,7,19.4,6.9ZM392.3,220.5s0,0,0,0c2.3,0,4.7.1,7,0,3.1-.2,4.8-2.1,5-5.2.2-3.1-1.1-5.4-4.2-5.9-5-.8-10-.7-15,0-3.1.4-4.7,2.6-4.6,5.7.1,3.3,2,5.3,5.4,5.6,2.1.2,4.3,0,6.4,0ZM343.6,220.4s0,0,0,0c2.3,0,4.7.1,7,0,2.9-.2,4.6-1.9,4.9-4.8.3-3-.8-5.6-3.9-6.2-5.1-1-10.4-.9-15.5,0-3.1.5-4.5,2.9-4.2,6,.3,3,2.1,4.9,5.3,5.1,2.1.1,4.3,0,6.5,0ZM386.7,230.5c-.1,4.1,1.1,7.1,5.5,7.2,4.8.1,6-3.3,5.9-7.2,0-3.9-1.5-6.8-5.9-6.7-4.3.1-5.8,3-5.6,6.7ZM349.5,230.9c0-3.8-1.2-7-5.6-7.1-4.2-.1-5.9,2.5-5.9,6.6,0,4.1,1,7.3,5.7,7.4,4.4,0,5.6-3.1,5.8-6.9Z"/>
        <path class="cls-9" d="M274.1,353.5c-11.8,14-18,30.5-21.2,48.4-.1-.7-.3-1.4-.3-2.1,0-.7,0-1.4,0-2.2,0-101.4,0-202.8.1-304.1,0-8.8-.6-7.2,7.1-7.2,14,0,28.1,0,42.1-.1,3.4,0,5.3,1,6.6,4.1,1,2.5,2.4,4.8,3.7,7.2,5.5,9.7,13.8,15,25.1,15,18.2.1,36.4-.1,54.6.1,13.5.2,23.5-5.4,28.9-17.7,3-7,7-9.4,14.6-8.9,13.3.8,26.6.3,40,.3,2.7,0,4.2.4,4.2,3.8,0,77.8,0,155.6,0,233.4,0,.3-.3.6-.7,1.4-9-8.4-18-16.5-26.2-25.4,2.6-2.8,6.2-3.5,9.5-4.7,4.6-1.7,6-4.4,5.9-9.3-.3-22.1-.1-44.3-.1-66.4,0-32.9.1-65.9,0-98.8,0-9.4-4.5-16.8-13.4-20.4-8.7-3.6-17.8-2.9-24.6,4-5.4,5.4-10,11.6-16,16.4-2.9,1-5.8,1.9-8.7,2.9-8.6,1.7-17.3.8-26,1.1-10.1-4.5-20.8-4.5-31.6-4.4-9.7.1-19.3-.1-29-.2-5.4-3.4-9.8-7.7-13.6-12.8-7.3-9.6-20.2-11.9-30.4-5.4-8,5.1-10.9,13-10.9,22.1,0,65.5,0,131,0,196.5,0,5.2-.1,10.4,1.1,15.5,1.5,6.7,2.8,13.7,9.4,17.8Z"/>
        <path class="cls-15" d="M274.1,353.5c-6.6-4.1-7.9-11.1-9.4-17.8-1.2-5.1-1.1-10.3-1.1-15.5,0-65.5,0-131,0-196.5,0-9.2,2.8-17.1,10.9-22.1,10.2-6.4,23.1-4.1,30.4,5.4,3.9,5.1,8.2,9.5,13.6,12.8-7.7,0-15.5.1-23.2.2-5.9,0-7.9,1.9-7.9,7.7,0,24.8,0,49.7,0,74.5,0,3.7.8,7.2,2.6,10.3,1.4,2.4,1.9,3.4-1.3,5-8.4,4.1-12,12.3-10.2,21.1,1.8,8.3,8.5,14.4,17.6,14.7,4.1.2,5.3,1.6,6.1,5.3,4.1,19.3,14.8,34,31.8,44.1,3.1,1.8,5.5,13.5,3.4,16.4-.9,1.2-2.3.8-3.5,1-24.1,3.8-44,14.9-60,33.3Z"/>
        <path class="cls-4" d="M540.4,467.9c-1.4,2.9-3,5.7-4.2,8.6-3.5,8.6-10,12.7-19.1,13-3.8.1-7.5,0-11.3,0-8.9,0-16.7-6.5-17.2-15.2-.7-12,.8-23.9,1.6-35.9.9-13.2,1-25.9-10.4-35.4-.2-7.7-3.3-14.1-8.5-19.8-10.6-11.7-21-23.6-31.3-35.6-8.4-9.7-10.4-20.6-4.9-32.4,3.4,4.7,8,8.1,12.3,11.9,16.2,14.2,32.2,28.5,48.3,42.7,4,3.5,7,7.6,8.5,12.8,2.5,8.6,5.1,17.2,7.9,25.7,4.1,12.6,10.4,17.5,23.8,18.5.4,7.9,1,15.8,1.3,23.6.2,6,1.6,11.7,3.3,17.4Z"/>
        <path class="cls-15" d="M413.8,120.3c6-4.9,10.6-11,16-16.4,6.8-6.9,15.9-7.6,24.6-4,8.8,3.6,13.3,11.1,13.4,20.4.2,32.9,0,65.9,0,98.8,0,22.1-.2,44.3.1,66.4,0,4.9-1.3,7.6-5.9,9.3-3.3,1.2-7,1.9-9.5,4.7-11.6-6.5-19.2-4.5-26.1,7-2.7,4.5-4.7,9.3-5.3,14.6-.3,2.7-1.1,3.5-4.1,2.6-4.9-1.6-10.1-2.4-15.2-3.5-1-.2-2.2.2-3-.8-2-2.6.3-14.8,3.1-16.5,17-10.4,27.8-25.2,31.8-44.7.7-3.5,2-4.4,5.5-4.5,8.5-.2,14.8-4.5,17.7-12.6,2.9-7.9.9-15-5.3-20.5-2.1-1.9-2.2-3.8-2.2-6.2,0-20.3,0-40.7,0-61,0-21.3-14.3-34.5-35.6-32.9Z"/>
        <path class="cls-2" d="M201.2,238.9c-9.5,0-18,0-26.4,0-8,0-9.6,1.6-9.6,9.3,0,2.7,0,5.4,0,8.1,0,7.2-2.2,9.4-9.3,9.4-12.2,0-24.5,0-36.7,0-20.9,0-41.8,0-62.7,0-7.3,0-9.4-2-9.4-9.2,0-32.2,0-64.4,0-96.7,0-7.2,2.1-9.5,9.2-9.5,33.1,0,66.3,0,99.4,0,7.1,0,9.5,2.4,9.5,9.3,0,9.2.3,18.4-.1,27.5-.3,5.7,1.6,9.9,5.2,14.1,9,10.5,17.7,21.3,26.6,32,1.2,1.5,2.4,3.1,4.3,5.6ZM106.6,162.1c-12.8,0-25.6,0-38.3,0-6.9,0-10,3-10,9.8,0,24.1,0,48.2,0,72.3,0,6.8,3,9.7,10,9.8,11.7,0,23.4,0,35.1,0,13.9,0,27.7,0,41.6,0,6.3,0,8.4-2.2,8.5-8.4,0-3.1-.2-6.1,0-9.2.3-4.3,2.3-7.3,6.8-8.5,9.2-2.4,10.5-6.9,4.9-14.7-4.1-5.7-11-9.9-11.5-17.7-.6-8.1-.2-16.2-.3-24.3,0-6.8-2.3-9.1-9-9.1-12.6,0-25.2,0-37.8,0Z"/>
        <path class="cls-11" d="M201.3,405c-9.2,11.2-17.2,21.9-26.2,31.6-7.5,8-11.4,16.4-10,27.5.8,6.9.2,14,.1,21,0,5.5-2.7,8.4-8.3,8.4-33.9,0-67.7,0-101.6,0-5.8,0-8.2-2.7-8.2-8.4,0-33,0-65.9,0-98.9,0-5.8,2.4-8.1,8.3-8.1,33.9,0,67.7,0,101.6,0,5.7,0,8,2.5,8.2,8.3,0,3.6,0,7.2,0,10.8.1,5.4,2.2,7.5,7.6,7.6,9,.1,18,0,28.5,0ZM106.7,390.1c-12.6,0-25.2,0-37.8,0-8,0-10.7,2.6-10.7,10.5,0,23.6,0,47.1,0,70.7,0,7.9,2.8,10.7,10.6,10.7,21.8,0,43.5,0,65.3,0,20.1.1,19.9.8,19-19-.5-11.7,1-22.1,10.1-30.2,1.1-1,2-2.1,2.9-3.2,4.5-5.7,2.3-12.3-4.8-13.3-5.8-.8-7.4-4.5-7.9-9.2-.3-2.8,0-5.8,0-8.6,0-6.4-2-8.4-8.3-8.4-12.8,0-25.5,0-38.3,0Z"/>
        <path class="cls-3" d="M324,531.7c-26.1,0-52.2,0-78.3,0-9.8,0-16.7-6.4-16.7-15.9,0-115.4,0-230.9,0-346.3,0-.7.2-1.4.2-2.1,3.9.3,7.8.6,11.5-1,0,2.5.1,5,.1,7.6,0,110.3,0,220.5,0,330.8,0,10.5,4.6,15.2,15.1,15.2,22.7,0,45.4,0,68.1,0-1.6,3.9-1.5,7.9,0,11.8Z"/>
        <path class="cls-6" d="M294.9,388c-4.5,2.1-4.5,6.8-5.1,10.5-3.5,19.3-6.6,38.7-9.8,58-1.3,8,4.8,19.2,11.8,22.3-1.2,8.7-2.4,17.4-3.5,26.2-.3,2.7-1.9,3-4.1,2.9-9,0-18-.2-27,0-3.6,0-4.3-1.2-4.5-4.7-1.4-24.1,2.1-47.7,7.1-71.2,2.9-13.7,5.2-27.6,8.3-41.2,4.9-22,24.2-45.8,52.3-55-1.8,3-3.3,5.2-4.4,7.7-1.7,3.6-3.7,7.2-4.4,11-1.3,7-3.2,12.7-10.2,16.7-5.7,3.3-6.7,10.3-6.4,16.9Z"/>
        <path class="cls-6" d="M303.1,485.2c41.7,0,83.5,0,125.2,0,6.3,0,11.8-2.7,17.5-4.4,1.2,7.2,2.4,14.5,3.7,21.7.7,3.9-.1,5.5-4.7,5.4-43.3-.2-86.7-.1-130-.2-3.8,0-7.6-.1-11.3,0-2.7.1-3.9-.5-3.3-3.6,1.2-6.3,2-12.7,3-19.1Z"/>
        <path class="cls-3" d="M490.7,265.7c0-58.5,0-117,0-175.6,0-11.7-4-15.6-16-15.6-13.5,0-27-.2-40.5-.3,0-3.8,0-7.6,0-11.4,18,0,36-.3,54-.2,7.8,0,14.3,7.2,14.3,15.3,0,16.2,0,32.4,0,48.6,0,46.4,0,92.8,0,139.3-3.9-2-7.9-1-11.8-.1Z"/>
        <path class="cls-3" d="M387.9,151.3c-9.2-1.2-18.4-3-27.8-2.1-2.8.2-4.1-2.1-5.6-3.8-2.7-2.9-5.9-4.2-9-1.6-3.4,2.9-2.3,6.2.4,9.4,7.6,9.2,9.8,19.3,5.2,30.7-1.2,3.1-2.5,3.5-4.9,1-7-7.2-14.2-14.3-21.4-21.4-1.3-1.3-2.6-2.6-4.1-3.5-2.6-1.5-5.6-2.2-7.9.4-2.4,2.7-2.3,6,.3,8.2,3.7,3.1,2.9,5.4.3,8.8-6.7,8.6-10.6,18.6-12.2,29.6-2.6-1.3-1.9-3.3-1.9-5,0-21.8,0-43.6-.1-65.4,0-3.8,1.2-4.9,4.9-4.9,19.3.2,38.5,0,57.8.1,11.2,0,22.6,8.8,26,19.4h0Z"/>
        <path class="cls-10" d="M535.8,426.9c-13.4-1.1-19.7-5.9-23.8-18.5-2.7-8.5-5.4-17.1-7.9-25.7-1.5-5.2-4.5-9.3-8.5-12.8-16.1-14.2-32.1-28.6-48.3-42.7-4.3-3.8-8.9-7.3-12.3-11.9.4-1,.8-2,1.4-2.9,3.9-6.3,5.5-6.6,11-1.4,20.6,19.5,41.3,39,61.6,58.8,16,15.6,25.1,34.7,26.8,57.2Z"/>
        <path class="cls-5" d="M229.1,115.5c0-12.7-.4-25.5-.1-38.2.1-8.1,6.8-14.7,15-14.7,30.7-.1,61.4,0,92.1.1,1.4,3.9,1.6,7.8,0,11.7-26.4,0-52.9.2-79.3.2-11.2,0-15.7,4.4-15.7,15.6,0,8.4-.2,16.9-.2,25.3-3.9,1.3-7.7,1.1-11.6,0Z"/>
        <path class="cls-13" d="M324,531.7c-1.5-3.9-1.6-7.9,0-11.8,41.6,0,83.1,0,124.7,0,3.8,0,8.8,6.6,7.9,10.5-.2.8-.6,1.3-1.4,1.3-1.1,0-2.2,0-3.2,0-42.6,0-85.3,0-127.9,0Z"/>
        <path class="cls-3" d="M436.7,212.9c-3.1-3.5-2-7.3-2.9-10.7-4.1-16.2-12.4-29.7-25.8-39.9-2.3-1.7-6-2.3-6-6.2,0-5.9-.6-12,3.3-17.1,4.7-6.3,11.4-8.5,18.6-6.4,7.5,2.2,13.6,8.9,13.7,16.3.2,20.7,0,41.4,0,62.1,0,.5-.4.9-.8,2Z"/>
        <path class="cls-3" d="M320.4,86.4c29.6,0,58.8,0,88,0,3,0,3.3,1.1,2.1,3.6-3.2,6.7-8.1,10.7-16,10.6-18.6-.1-37.1,0-55.7,0-9.9,0-14.9-3.7-18.5-14.1Z"/>
        <path class="cls-1" d="M335.9,74.3c1.6-3.9,1.5-7.8,0-11.7,32.7,0,65.5,0,98.2.1,0,3.8,0,7.6,0,11.4-15.3,0-30.6.2-45.9.2-17.5,0-34.9,0-52.4-.1Z"/>
        <path class="cls-6" d="M455.6,442.1c-2.8-2.1-2.2-5.4-2.7-8.2-2.4-12.2-4.3-24.4-6.7-36.6-.6-2.9-.5-6.5-3.8-8.3,0-3,0-6.1-.2-9.1-.3-7.4-3.9-12.2-11.1-13.9-2.9-.7-3.9-1.8-4.4-4.8-1.3-9-4.9-17.2-10.3-24.6,4.5-.1,4.9,0,6.1,3.7,2,6.1,5.4,11.3,9.6,16,10.4,11.7,20.5,23.6,31,35.2,4.5,4.9,5.6,9.9,3.5,16.3-3.9,11.4-7.4,22.9-11,34.3Z"/>
        <path class="cls-13" d="M490.7,265.7c3.9-.9,7.9-1.9,11.8.1,0,26.6,0,53.3,0,80.8-6.2-5.3-12.6-8.5-12.2-18.3.9-20.8.3-41.8.4-62.6Z"/>
        <path class="cls-12" d="M422.6,208.6c-5.4-7.6-10.9-15.1-18.6-20.6-11.6-8.3-24.7-11.7-38.8-11.9-.1-2.7,0-5.4-.4-8.1-1-7.4-1.1-7.4,6.6-7.1,25.6.9,50,23.6,51.2,47.6Z"/>
        <path class="cls-12" d="M386.8,317.6c0,11.6-10.8,18.9-23.8,16-10.8-2.4-16-10.6-13.8-21.5.5-2.5,1.9-2.2,3.5-1.9,10.2,2.4,20.3,2.4,30.4,0,2.9-.7,4,.2,3.7,3.1-.1,1.4,0,2.9,0,4.3Z"/>
        <path class="cls-9" d="M367.8,393.8c-4.7-16.8-8.9-32-13.2-47.2-.9-3.2.5-3.4,3-2.6,6.9,2.3,13.8,2.3,20.7,0,3-1,3.5,0,2.7,2.7-4.3,15.2-8.5,30.4-13.1,47Z"/>
        <path class="cls-1" d="M229.1,115.5c3.9,1.1,7.7,1.3,11.6,0,0,16.9,0,33.9,0,50.8-3.7,1.6-7.6,1.2-11.5,1-.7-17.3-.4-34.5-.1-51.8Z"/>
        <path class="cls-6" d="M413.9,358.8c-7.3-2.7-14.6-5.3-22.6-4.3,1.8-6.7,3.6-13.4,5.8-21.2,8.6,7.1,14.6,14.9,16.8,25.5Z"/>
        <path class="cls-6" d="M344.8,354.4c-7.6-1.2-14.5,2.7-21.8,3.3,1.8-9.2,7.3-16.1,13.9-22.3,1.7-1.6,2.7-1.3,3.2.9,1.5,6.1,3.1,12.1,4.6,18.2Z"/>
        <path class="cls-15" d="M314.4,393.4c-4.6,0-8-3.7-7.9-8.4.1-4.4,3.5-7.8,7.9-7.8,4.5,0,8.3,3.7,8.3,8.1,0,4.4-3.9,8.2-8.4,8.1Z"/>
        <path class="cls-12" d="M331.8,187.7c-7.3,6-13.1,13.3-18.6,20.9.5-9.6,4.7-17.7,10.1-25.4,1.4-2,2.6-2,4.2-.2,1.4,1.6,2.9,3.2,4.3,4.7Z"/>
        <path class="cls-12" d="M434.9,234.4c1.7-2.4-2.6-7.6,3.9-7.4,4.6,0,8.1,3.3,8.1,7.6,0,4.2-3.7,7.4-8.3,7.4-6.5,0-1.9-5.2-3.7-7.6Z"/>
        <path class="cls-12" d="M300.9,234.9c-1.7,2.2,2.4,7.1-3.7,7.1-4.6,0-7.9-3.2-7.8-7.7,0-4.2,3.2-7.3,7.6-7.3,7,0,1.9,5.5,3.9,7.9Z"/>
        <path class="cls-15" d="M379.1,124.3c8.7-.3,17.4.5,26-1.1-4.6,3.5-9.1,7-11.8,13.2-4.3-5.3-9.2-8.8-14.2-12.1Z"/>
        <path class="cls-3" d="M387.9,151.3c.2,0,.3.2.5.3-.2,0-.3-.2-.5-.3,0,0,0,0,0,0Z"/>
        <path class="cls-8" d="M368.1,283.2c-7.3.1-13.7-2.3-19.3-6.9-2.9-2.3-4-5.2-1.5-8.4,2.3-2.9,5.3-3,8.1-1,8.5,6.1,16.9,6,25.3,0,2.9-2.1,5.9-1.7,8,1.3,2.2,3,1.3,5.8-1.4,8-5.6,4.6-12,7-19.3,7Z"/>
        <path class="cls-8" d="M392.3,220.5c-2.1,0-4.3.1-6.4,0-3.4-.2-5.2-2.3-5.4-5.6-.1-3.1,1.5-5.3,4.6-5.7,5-.6,10-.7,15,0,3.1.5,4.4,2.8,4.2,5.9-.2,3.1-1.9,5-5,5.2-2.3.2-4.6,0-7,0,0,0,0,0,0,0Z"/>
        <path class="cls-8" d="M343.6,220.4c-2.2,0-4.3.1-6.5,0-3.1-.2-5-2.1-5.3-5.1-.3-3,1.1-5.5,4.2-6,5.2-.8,10.4-.9,15.5,0,3.1.6,4.2,3.1,3.9,6.2-.3,2.9-2,4.6-4.9,4.8-2.3.2-4.7,0-7,0,0,0,0,0,0,0Z"/>
        <path class="cls-8" d="M386.7,230.5c-.2-3.8,1.3-6.6,5.6-6.7,4.4-.1,5.9,2.9,5.9,6.7,0,4-1.2,7.3-5.9,7.2-4.4,0-5.6-3.1-5.5-7.2Z"/>
        <path class="cls-8" d="M349.5,230.9c-.2,3.8-1.3,6.9-5.8,6.9-4.7,0-5.8-3.3-5.7-7.4,0-4.1,1.7-6.7,5.9-6.6,4.4.1,5.5,3.3,5.6,7.1Z"/>
        <path class="cls-14" d="M106.6,162.1c12.6,0,25.2,0,37.8,0,6.7,0,8.9,2.3,9,9.1,0,8.1-.3,16.2.3,24.3.5,7.8,7.5,11.9,11.5,17.7,5.5,7.8,4.3,12.4-4.9,14.7-4.5,1.2-6.5,4.1-6.8,8.5-.2,3,0,6.1,0,9.2,0,6.2-2.2,8.4-8.5,8.4-13.9,0-27.7,0-41.6,0-11.7,0-23.4,0-35.1,0-6.9,0-10-2.9-10-9.8,0-24.1,0-48.2,0-72.3,0-6.8,3-9.7,10-9.8,12.8,0,25.6,0,38.3,0ZM140.8,202.2c-3.7.2-6.4,1.9-6.4,5.8,0,3.8,2.3,5.9,6.2,5.9,3.8,0,6.2-1.7,6.3-5.7,0-4-2.4-5.6-6.1-6ZM105.5,213.9c3.3-.3,5.7-2.1,5.6-6-.1-4-2.8-5.7-6.4-5.6-3.8,0-6.2,2.2-6.1,6,.1,3.8,2.6,5.6,6.9,5.6ZM77.7,208.3c-.2-4-2.5-6-6.2-6-3.7,0-6.3,1.9-6.3,5.7,0,3.7,2.2,5.9,6.1,5.9,3.8,0,6-1.8,6.4-5.6Z"/>
        <path class="cls-7" d="M106.7,390.1c12.8,0,25.5,0,38.3,0,6.4,0,8.3,2,8.3,8.4,0,2.9-.2,5.8,0,8.6.5,4.7,2,8.4,7.9,9.2,7.2,1,9.3,7.6,4.8,13.3-.9,1.1-1.8,2.3-2.9,3.2-9.1,8.2-10.6,18.5-10.1,30.2.9,19.8,1,19.1-19,19-21.8-.1-43.5,0-65.3,0-7.9,0-10.6-2.8-10.6-10.7,0-23.6,0-47.1,0-70.7,0-7.9,2.7-10.5,10.7-10.5,12.6,0,25.2,0,37.8,0ZM106,430.1c-10.1,0-20.1,0-30.2,0-4.2,0-7.4,1.4-7.3,5.9,0,4.5,3.4,5.8,7.5,5.8,20.1,0,40.3,0,60.4,0,4.1,0,7.3-1.3,7.3-6,0-4.8-3.4-5.7-7.4-5.7-10.1,0-20.1,0-30.2,0ZM106.3,468c9.9,0,19.8,0,29.7,0,3.9,0,7.5-.6,7.6-5.5.2-5.1-3.3-6.2-7.6-6.2-20,0-39.9,0-59.9,0-4.3,0-7.8,1.2-7.7,6.1.1,4.5,3.5,5.6,7.6,5.6,10.1-.1,20.1,0,30.2,0ZM105.7,403.9c-10.1,0-20.1,0-30.2,0-4,0-7,1.2-7.1,5.5,0,4.6,3.1,5.9,7.3,5.9,20.3,0,40.6,0,60.9,0,3.9,0,6.9-1,7-5.5.1-4.9-3.1-5.9-7.2-5.8-10.2,0-20.5,0-30.7,0Z"/>
        <path class="cls-8" d="M140.8,202.2c3.6.4,6.2,2,6.1,6,0,4-2.5,5.7-6.3,5.7-3.9,0-6.2-2.1-6.2-5.9,0-3.9,2.7-5.6,6.4-5.8Z"/>
        <path class="cls-8" d="M105.5,213.9c-4.3,0-6.8-1.8-6.9-5.6-.1-3.8,2.3-6,6.1-6,3.7,0,6.3,1.6,6.4,5.6.1,4-2.3,5.7-5.6,6Z"/>
        <path class="cls-8" d="M77.7,208.3c-.4,3.8-2.6,5.6-6.4,5.6-3.9,0-6.2-2.1-6.1-5.9,0-3.8,2.6-5.8,6.3-5.7,3.7,0,6,2,6.2,6Z"/>
        <path class="cls-8" d="M106,430.1c10.1,0,20.1,0,30.2,0,4,0,7.4.9,7.4,5.7,0,4.7-3.2,6-7.3,6-20.1,0-40.3,0-60.4,0-4.1,0-7.5-1.3-7.5-5.8,0-4.5,3.1-5.9,7.3-5.9,10.1.1,20.1,0,30.2,0Z"/>
        <path class="cls-8" d="M106.3,468c-10.1,0-20.2,0-30.2,0-4.1,0-7.5-1.1-7.6-5.6-.2-4.9,3.4-6.1,7.7-6.1,20,0,39.9,0,59.9,0,4.3,0,7.7,1.1,7.6,6.2-.2,4.9-3.7,5.5-7.6,5.5-9.9,0-19.8,0-29.7,0Z"/>
        <path class="cls-8" d="M105.7,403.9c10.2,0,20.5,0,30.7,0,4.1,0,7.3,1,7.2,5.8,0,4.5-3.2,5.5-7,5.5-20.3,0-40.6,0-60.9,0-4.2,0-7.3-1.3-7.3-5.9,0-4.3,3.1-5.5,7.1-5.5,10.1,0,20.1,0,30.2,0Z"/>
      </g>
    </g>
  </g>
</svg>