<svg xmlns="http://www.w3.org/2000/svg" xmlns:xlink="http://www.w3.org/1999/xlink" width="59" height="80" viewBox="0 0 59 80">
  <defs>
    <clipPath id="clip-path">
      <rect id="Rectangle_6227" data-name="Rectangle 6227" width="59" height="80" transform="translate(10.5)" fill="none"/>
    </clipPath>
  </defs>
  <g id="Group_20960" data-name="Group 20960" transform="translate(-10.5)" clip-path="url(#clip-path)">
    <path id="Path_14454" data-name="Path 14454" d="M45.524,20.055a4.364,4.364,0,0,0-4.323,4.18,1.075,1.075,0,0,0,0,.139,1.09,1.09,0,0,0,0,.14,4.328,4.328,0,1,0,4.323-4.459m1.642,4.96a3.37,3.37,0,0,1-.185.339.782.782,0,0,0-.06.09c-.051.057-.1.111-.156.168s-.232.191-.24.2a3.258,3.258,0,0,1-.372.2c.158-.08-.223.058-.265.07l-.137.028c.09-.021-.185,0-.223,0h-.237a3.034,3.034,0,0,0-.4-.1c-.114-.056-.225-.118-.333-.185l-.091-.061c-.058-.05-.111-.1-.169-.156s-.192-.234-.2-.239a3.122,3.122,0,0,1-.2-.373c.079.159-.059-.222-.071-.263a1.006,1.006,0,0,1-.027-.139c.021.092,0-.182,0-.216v-.236a3.431,3.431,0,0,0,.1-.4,3.586,3.586,0,0,1,.185-.333l.061-.09c.05-.059.1-.111.155-.169s.233-.19.24-.2a3.2,3.2,0,0,1,.373-.2c-.159.078.223-.057.264-.071l.137-.028c-.092.023.185,0,.223,0h.235a3.439,3.439,0,0,0,.4.1,3.608,3.608,0,0,1,.334.183l.09.061c.058.05.111.1.169.156s.192.232.206.241a3.374,3.374,0,0,1,.2.373c-.081-.159.057.223.071.263a1.033,1.033,0,0,1,.025.137c-.021-.093,0,.183,0,.216v.233a3.451,3.451,0,0,0-.1.4Z" fill="#273990"/>
    <path id="Path_14455" data-name="Path 14455" d="M64.84,56.463a21.3,21.3,0,0,0,4.648-11.6A22.785,22.785,0,0,0,57.465,24.026c-.575-.325-1.164-.619-1.766-.9l-.243-.111c.111.111.12.131.04.048s-.151-.165-.223-.248l-.094-.117-.017-.021c-.092-.125-.177-.263-.264-.39a5.011,5.011,0,0,1-.718-3.477,1.262,1.262,0,0,0-.945-1.239l-4.5-.838a1.214,1.214,0,0,0-.918-1.3l-1.39-.21,1.492-6.555a1.3,1.3,0,0,0-.9-1.576l-.528-.111L47.51,3.32a1.294,1.294,0,0,0-.9-1.581L39.846.045A1.3,1.3,0,0,0,38.262.94l-1,4.014-.195-.043a1.3,1.3,0,0,0-1.585.9L33.558,14.1,29.825,30.17,27.351,40.837l-.077.327a1.3,1.3,0,0,0,.9,1.581l10.035,2.438a1.282,1.282,0,0,0,1.566-.9c.451-1.979.905-3.952,1.336-5.937a.681.681,0,0,0,.087-.4c.171-.647.317-1.3.465-1.946l2.714.526a1.3,1.3,0,0,0,1.584-.9,1.367,1.367,0,0,1,.03-.181l2.712.409a5.366,5.366,0,0,0,2.062.117c.182-.044.365-.079.546-.111l.18-.026c.124-.014.264-.024.378-.035a5.062,5.062,0,0,1,2.989.6,5.785,5.785,0,0,1,.528.333l.03.021.033.029c.077.063.154.131.223.2a3.856,3.856,0,0,1,.417.421c.067.073.129.148.193.222l.09.123a7.49,7.49,0,0,1,.586.992c.032.06.161.355.18.394.065.169.129.34.187.511a12.08,12.08,0,0,1,.486,2.082.909.909,0,0,0,.024.208c.015.14.029.28.04.419.021.263.034.528.039.778,0,.376,0,.753-.026,1.131a3.1,3.1,0,0,1-.038.373v.038a.3.3,0,0,1-.018.111c-.036.24-.088.475-.142.711a10.9,10.9,0,0,1-.452,1.445l-.075.176-.111.237c-.092.2-.195.4-.3.588a12.483,12.483,0,0,1-.724,1.173c-.1.137-.193.263-.293.406l-.111.142-.185.222c-.264.308-.527.606-.81.889A16.366,16.366,0,0,1,53.174,52.1l-.1.075-.264.19c-.15.111-.3.216-.46.319-.173.111-.354.222-.527.334s-.366.2-.55.29l-.282.132-.059.025-.111.048a11.808,11.808,0,0,1-1.653.506h-.018q-.46.106-.928.187l-.327.053h-.1c-.222.026-.445.05-.662.069-.483.042-.968.065-1.447.076a28.475,28.475,0,0,1-3.623-.172c-.238-.026-.473-.052-.71-.083l-.288-.033-.4-.061q-.791-.121-1.584-.279a28.667,28.667,0,0,1-3.451-.848,1.132,1.132,0,0,0-.179-.058,1.092,1.092,0,0,0-.2-.045L23.685,50.185l-.167-.037a1.285,1.285,0,1,0-.684,2.477l11.132,2.543a5.77,5.77,0,0,0,2.906,3.805v.055a1.418,1.418,0,0,0,.572,1.468l-.192,1.118-.972-.138a4.878,4.878,0,0,0-1.848-1.556,14.359,14.359,0,0,0-7.284-1.466c-1.832.089-4.573.611-4.8,2.853-.139,1.386,1.186,2.432,2.266,3.012a14.058,14.058,0,0,0,5.218,1.415,13.585,13.585,0,0,0,3.674-.143A4.858,4.858,0,0,0,36,64.434a2.47,2.47,0,0,0,.315-.377l.512.073-.193,1.111a1.318,1.318,0,0,0,.973,1.59,1.208,1.208,0,0,0,.267.036l5.256.7a1.219,1.219,0,0,0,1.17-.79v4.061H13.773a4.353,4.353,0,0,0-1.336.111,2.7,2.7,0,0,0-1.848,2.611v1.815a5.385,5.385,0,0,0,.668,3.72c.875,1.018,2.084.9,3.262.9H65.826a2.828,2.828,0,0,0,2.561-1.341,4.921,4.921,0,0,0,.356-2.54V75.093c0-.154.087-.319.087-.492V73.268a1.283,1.283,0,0,0-.187-.649.284.284,0,0,0-.056-.073,2.375,2.375,0,0,0-.3-.565,2.776,2.776,0,0,0-.98-.837,3.169,3.169,0,0,0-1.532-.316H60.906c-1.6-2.567-3.206-5.039-4.809-7.555a24.1,24.1,0,0,0,8.743-6.82M53.1,52.167h0c.229-.179.067-.05,0,0m-.143,3.167A14.548,14.548,0,0,0,55.5,53.5a16.064,16.064,0,0,0,3.169-3.7A12.43,12.43,0,0,0,60.5,43.883a14.886,14.886,0,0,0-.2-2.9,10.152,10.152,0,0,0-2.581-5.618A7.98,7.98,0,0,0,50.13,33.48l-3.9-.591a1.41,1.41,0,0,0-.879-.79,1.287,1.287,0,0,0-1.584.9l-.112.759-2.611-.511a1.3,1.3,0,0,0-1.584.9q-.4,1.667-.793,3.347c0,.052.029.1-.056.155q-.528,2.373-1.056,4.725l-7.52-1.831q.815-3.5,1.629-7Q33.532,25.5,35.4,17.461l2.277-9.806.177.039a1.3,1.3,0,0,0,1.59-.893l1-3.976,4.231,1.054-1.036,3.7a1.292,1.292,0,0,0,.9,1.582l.589.128-1.521,6.63a1.293,1.293,0,0,0,.9,1.582l1.5.228a1.223,1.223,0,0,0,.92,1.26l4.613.859a7.728,7.728,0,0,0,2.167,5.069,5.429,5.429,0,0,0,1.511.815c.51.263,1,.527,1.495.822.445.263.882.548,1.32.841.212.144.42.294.628.444.312.229.248.182.55.425a22.942,22.942,0,0,1,2.31,2.142c.344.361.668.735.988,1.119.3.357.583.728.845,1.111a21.826,21.826,0,0,1,1.58,2.608c.206.4.4.812.575,1.222l.091.222c.044.111.086.223.131.334.1.264.194.527.281.791a19.449,19.449,0,0,1,.725,2.882c.021.111.04.234.058.351l.029.206c.027.21.048.419.067.629.048.511.069,1.027.071,1.542s-.015.953-.05,1.431c-.015.239-.042.479-.069.719,0,.019-.023.184-.029.229-.019.126-.04.253-.061.38a18.667,18.667,0,0,1-.728,2.9c-.077.223-.159.454-.243.678-.042.111-.088.222-.13.334l-.087.211c-.195.453-.412.9-.639,1.333a21.028,21.028,0,0,1-1.584,2.569l-.217.294-.056.075-.041.052c-.151.192-.307.382-.465.57-.343.408-.7.79-1.074,1.182A22.562,22.562,0,0,1,59.23,58.4l-.2.151-.306.223c-.238.171-.484.333-.729.5-.46.305-.93.59-1.41.862-.626.355-1.267.674-1.877.945L51.466,56a12.515,12.515,0,0,0,1.492-.666ZM24.85,61.617c-.135.213-.076.081,0,0m0,0h0c-.03.121-.021.068.013-.006Zm.026-.024h0c.013.021.011.016.013,0Zm8.949,1.238a1.772,1.772,0,0,1-.187.074,5.706,5.706,0,0,1-.729.192c-.111.024-.233.046-.348.063h-.154c-.264.029-.528.043-.792.054a14.269,14.269,0,0,1-1.79-.064,13.549,13.549,0,0,1-3.339-.79l-.075-.03-.081-.036c-.111-.047-.214-.1-.323-.153a6.366,6.366,0,0,1-.575-.324l-.135-.089c.021,0-.111-.084-.145-.111s-.088-.081-.13-.123l.067-.037.1-.053a1.58,1.58,0,0,1,.187-.074,6,6,0,0,1,.618-.169c.111-.026.222-.047.341-.068l.232-.035c.281-.031.563-.047.845-.058a12.838,12.838,0,0,1,3.552.369,12.453,12.453,0,0,1,1.584.49l.074.029.082.038c.111.047.216.1.322.152a6.464,6.464,0,0,1,.66.382l.144.1.111.111.063.063-.065.037ZM13.172,73.416l.044-.026-.048.029Zm-.021-.021h0c0-.074.013-.06.01-.01ZM66.133,77.44h0l.042-.015Zm-.017.039h0V77.5c0,.015.011-.032.011-.038Zm-7.05-4.722c.528.832,1.611.646,2.464.646h4.224a1.748,1.748,0,0,0,.307,0s.085.084.089.057c.043.077.048.014.019.014a.1.1,0,0,1,.066.076v.556a.972.972,0,0,0-.111.49c0,.92.025,1.844,0,2.764,0-.031-.029,0-.037.037H13.181l.019.019c.1.019,0-.053-.037-.05-.042-.941,0-1.895,0-2.836V73.477l.009-.032a.114.114,0,0,0,.079-.025,1.3,1.3,0,0,1,.293,0h32.08a1.28,1.28,0,0,0,1.247-1.3v-7.8A1.28,1.28,0,0,0,45.6,63.034a3.148,3.148,0,0,0-1.183.1,4.589,4.589,0,0,0-1.336.811,3.4,3.4,0,0,0-.761.955l-2.957-.39.19-1.094a1.66,1.66,0,0,0,.024-.263.977.977,0,0,0,.058-.2l.528-3.1a1.443,1.443,0,0,0-.557-1.46,1.286,1.286,0,0,0-.921-1.415l-.246-.076-.064-.024-.147-.063A4.934,4.934,0,0,1,37.7,56.5l-.065-.043-.056-.045c-.1-.081-.193-.174-.285-.264l-.087-.092a42.539,42.539,0,0,0,4.666.759,24.579,24.579,0,0,0,6.974-.075l4.124,6.666a1.425,1.425,0,0,0,.415.425l1.473,2.313,3.628,5.694Z" fill="#273990"/>
  </g>
</svg>
