<?xml version="1.0" encoding="UTF-8"?>
<svg xmlns="http://www.w3.org/2000/svg" version="1.1" viewBox="0 0 1728 2148">
  <defs>
    <style>
      .cls-1 {
        fill: #fff;
      }
    </style>
  </defs>
  <!-- Generator: Adobe Illustrator 28.7.3, SVG Export Plug-In . SVG Version: 1.2.0 Build 164)  -->
  <g>
    <g id="Layer_1">
      <g>
        <path class="cls-1" d="M864,1241.4h0c-196,0-355.5-159.5-355.5-355.5s159.5-355.5,355.5-355.5,355.5,159.5,355.5,355.5-37,184.3-104.1,251.4c-67.1,67.1-156.4,104.1-251.4,104.1ZM864,677.1c-115.1,0-208.8,93.7-208.8,208.8s93.7,208.8,208.8,208.8h0c55.8,0,108.2-21.7,147.6-61.2,39.4-39.4,61.2-91.9,61.2-147.7,0-115.1-93.7-208.8-208.8-208.8Z"/>
        <path class="cls-1" d="M864,2087.9c-21.3,0-41.5-9.2-55.4-25.3L197.2,1357.2c-114.9-143.3-159-274.8-159-471.3C38.2,430.5,408.6,60.1,864,60.1s825.8,370.5,825.8,825.8-44.1,328-157.2,469.2l-613.2,707.6c-13.9,16.1-34.1,25.3-55.4,25.3ZM864,206.8c-374.5,0-679.1,304.6-679.1,679.1s32.7,262.3,125,377.4l554.2,639.3,556-641.5c90.5-113,123.1-211.7,123.1-375.2,0-374.5-304.6-679.1-679.1-679.1Z"/>
      </g>
    </g>
  </g>
</svg>