<svg xmlns="http://www.w3.org/2000/svg" width="60" height="60" viewBox="0 0 60 60">
  <g id="Twitter" transform="translate(-457 -6509)">
    <circle id="Ellipse_30" data-name="Ellipse 30" cx="30" cy="30" r="30" transform="translate(457 6509)" fill="#fff"/>
    <path id="Path_2" data-name="Path 2" d="M606.822,234.081a12.614,12.614,0,0,1-3.251.826,6.1,6.1,0,0,0,2.638-3.113.1.1,0,0,0-.138-.114,12.528,12.528,0,0,1-3.711,1.347,6.239,6.239,0,0,0-4.519-1.913,6.128,6.128,0,0,0-6.189,6.058,6.036,6.036,0,0,0,.16,1.381,17.714,17.714,0,0,1-12.728-6.293.035.035,0,0,0-.056,0,5.977,5.977,0,0,0,1.833,7.973.038.038,0,0,1-.023.069,6.282,6.282,0,0,1-2.622-.725.031.031,0,0,0-.048.027,8.165,8.165,0,0,0,.418,2.217,6.237,6.237,0,0,0,4.548,3.747,6.525,6.525,0,0,1-1.635.215,6.216,6.216,0,0,1-1.11-.1.034.034,0,0,0-.039.045,6.186,6.186,0,0,0,5.66,4.149.037.037,0,0,1,.022.066,12.573,12.573,0,0,1-7.606,2.532,12.963,12.963,0,0,1-1.474-.083,17.8,17.8,0,0,0,9.487,2.721,17.3,17.3,0,0,0,11.6-4.163,17.752,17.752,0,0,0,5.6-9.418,16.557,16.557,0,0,0,.424-3.658c0-.261-.007-.523-.02-.783a12.415,12.415,0,0,0,2.9-2.869A.1.1,0,0,0,606.822,234.081Z" transform="translate(-104.955 6295.887)" fill="#00a9ff"/>
  </g>
</svg>
